<?xml version="1.0" standalone="no"?>
<!DOCTYPE svg PUBLIC "-//W3C//DTD SVG 20010904//EN"
 "http://www.w3.org/TR/2001/REC-SVG-20010904/DTD/svg10.dtd">
<svg version="1.0" xmlns="http://www.w3.org/2000/svg"
 width="16.000000pt" height="16.000000pt" viewBox="0 0 16.000000 16.000000"
 preserveAspectRatio="xMidYMid meet">
<metadata>
Created by potrace 1.11, written by Peter Selinger 2001-2013
</metadata>
<g transform="translate(0.000000,16.000000) scale(0.004444,-0.004444)"
fill="#000000" stroke="none">
<path d="M1650 2799 c-336 -32 -652 -174 -894 -400 -81 -76 -216 -231 -216
-248 0 -15 133 -171 199 -234 228 -215 507 -353 811 -402 138 -22 380 -20 522
4 319 55 619 216 844 454 49 52 103 113 118 136 l29 41 -29 43 c-51 75 -264
280 -359 344 -224 151 -470 239 -735 263 -128 11 -167 11 -290 -1z m445 -149
c177 -38 348 -111 509 -218 80 -53 296 -259 296 -282 0 -8 -48 -62 -107 -121
-200 -197 -429 -321 -703 -380 -139 -30 -418 -33 -553 -6 -288 58 -523 183
-729 387 -60 59 -108 112 -108 118 0 7 37 51 82 98 216 225 490 368 803 419
127 20 378 13 510 -15z"/>
<path d="M1628 2581 c-146 -47 -268 -174 -308 -320 -20 -76 -6 -80 60 -17 171
163 427 159 596 -10 51 -52 79 -101 32 -56 -63 58 -203 81 -285 47 -103 -43
-173 -137 -181 -244 -8 -123 46 -223 152 -279 44 -23 63 -27 136 -27 75 0 93
4 153 32 316 149 346 630 51 819 -115 74 -278 96 -406 55z"/>
<path d="M855 1369 c-22 -5 -57 -22 -78 -36 -140 -97 -114 -323 44 -382 19 -7
42 -16 53 -20 11 -4 30 -35 46 -76 l28 -70 71 -3 c39 -2 71 1 71 5 0 4 -14 43
-31 86 l-32 78 43 36 c152 131 75 366 -126 387 -27 3 -67 1 -89 -5z m105 -134
c40 -21 56 -72 36 -118 -26 -64 -88 -76 -137 -28 -21 22 -29 39 -29 66 0 27 8
44 29 66 33 32 58 36 101 14z"/>
<path d="M100 1155 l0 -215 180 0 180 0 0 60 0 60 -110 0 -110 0 0 155 0 155
-70 0 -70 0 0 -215z"/>
<path d="M500 1155 l0 -215 75 0 75 0 0 215 0 215 -75 0 -75 0 0 -215z"/>
<path d="M1200 1220 c0 -168 8 -199 59 -243 79 -66 237 -63 307 7 44 44 54 89
54 249 l0 137 -75 0 -75 0 0 -139 c0 -154 -6 -171 -59 -171 -55 0 -66 27 -69
176 l-4 134 -69 0 -69 0 0 -150z"/>
<path d="M1680 1155 l0 -215 70 0 70 0 0 215 0 215 -70 0 -70 0 0 -215z"/>
<path d="M1900 1155 l0 -217 128 4 c143 5 184 19 240 82 35 41 46 84 40 160
-6 76 -38 123 -107 154 -48 22 -73 27 -178 30 l-123 4 0 -217z m224 74 c50
-23 58 -112 13 -144 -12 -8 -38 -15 -59 -15 l-38 0 0 85 0 85 30 0 c16 0 40
-5 54 -11z"/>
<path d="M2470 1328 c-124 -63 -149 -255 -45 -346 68 -61 180 -68 256 -17 43
28 48 41 22 60 -13 10 -22 8 -50 -11 -45 -30 -83 -37 -132 -24 -44 12 -87 58
-93 100 l-3 25 158 3 157 3 0 27 c0 50 -21 103 -57 143 -56 62 -136 75 -213
37z m131 -43 c34 -18 69 -69 69 -102 0 -23 -2 -23 -119 -23 -71 0 -122 4 -126
10 -11 18 28 84 64 107 40 27 71 29 112 8z"/>
<path d="M3259 1341 c-46 -15 -79 -43 -106 -89 -22 -37 -27 -58 -27 -113 0
-57 4 -74 29 -115 38 -61 98 -94 169 -94 55 0 121 25 149 57 16 19 16 20 -1
36 -17 16 -20 15 -51 -7 -85 -63 -208 -24 -227 72 l-6 32 156 0 156 0 0 38 c0
53 -44 137 -85 162 -38 23 -116 34 -156 21z m107 -57 c34 -16 82 -94 69 -114
-4 -6 -55 -10 -126 -10 -117 0 -119 0 -119 23 0 34 37 87 73 102 42 19 62 18
103 -1z"/>
<path d="M2734 1308 c7 -18 48 -109 91 -202 l78 -169 -31 -74 -31 -74 30 3
c31 3 33 7 135 257 132 322 123 293 82 289 -33 -3 -33 -3 -93 -160 -33 -87
-62 -158 -65 -158 -3 0 -36 72 -74 160 l-69 160 -33 0 -34 0 14 -32z"/>
</g>
</svg>
