<svg xmlns="http://www.w3.org/2000/svg" viewBox="0 0 340.2 340.2">

  <path
    d="M62 254.7h2.4l2.2 7.2 2.4-7.2h2l2.3 7.2 2.2-7.2H78l-3.6 10.7h-2.1l-2.3-6.9-2.4 6.9h-2m16.3-10.7H84l4.5 10.6h-2.4l-1-2.4h-4.5l-1 2.4h-2.4l4.7-10.6zm2.5 6.2l-1.4-3.4-1.4 3.4h2.8zm6.9-4h-3.2v-2.2h8.8v2.2h-3.3v8.4h-2.3m7.3-10.6h8v2.1h-5.7v2.2h5v2h-5v2.2h5.8v2.1h-8.1m10.1-10.6h4.8c1.3 0 2.4.4 3.1 1.1.6.6.9 1.4.9 2.4 0 1.7-.9 2.8-2.3 3.3l2.6 3.8h-2.7l-2.3-3.4H111v3.4h-2.3v-10.6zm4.7 5.2c1.1 0 1.8-.6 1.8-1.5 0-1-.7-1.5-1.8-1.5h-2.3v3h2.3zm10.8-5.2h2.3v4.2h4.3v-4.2h2.3v10.6h-2.3v-4.2h-4.3v4.2h-2.3m10.9-5.2c0-3 2.4-5.5 5.6-5.5 3.3 0 5.6 2.4 5.6 5.4 0 3-2.4 5.5-5.6 5.5-3.2 0-5.6-2.5-5.6-5.4m8.8 0c0-1.8-1.3-3.3-3.2-3.3-1.9 0-3.2 1.5-3.2 3.3 0 1.8 1.3 3.3 3.2 3.3 1.9-.1 3.2-1.5 3.2-3.3m4.4.7v-6h2.3v6c0 1.7.9 2.6 2.3 2.6s2.3-.9 2.3-2.5v-6h2.3v6c0 3.2-1.8 4.8-4.6 4.8-2.9-.2-4.6-1.8-4.6-4.9m10.8 3l1.4-1.6c1 .8 1.9 1.3 3.2 1.3.9 0 1.5-.4 1.5-1s-.4-.9-2.1-1.3c-2.1-.5-3.5-1.1-3.5-3.2 0-1.9 1.5-3.2 3.7-3.2 1.5 0 2.8.5 3.9 1.3l-1.2 1.7c-.9-.6-1.9-1-2.7-1-.9 0-1.4.4-1.4.9 0 .7.5.9 2.3 1.4 2.1.6 3.3 1.3 3.3 3.2 0 2.1-1.6 3.3-3.9 3.3-1.6-.2-3.2-.7-4.5-1.8m10.5-9.1h2.3v10.5h-2.3zm4.9 0h2.2l4.9 6.5v-6.5h2.3v10.6h-2l-5.1-6.7v6.7h-2.3m11.5-5.2c0-3 2.3-5.5 5.5-5.5 1.9 0 3 .5 4.1 1.4l-1.5 1.8c-.8-.7-1.5-1.1-2.8-1.1-1.7 0-3 1.5-3 3.3 0 1.9 1.3 3.3 3.2 3.3.8 0 1.6-.2 2.2-.6v-1.5h-2.3v-2h4.6v4.6c-1.1.9-2.6 1.7-4.5 1.7-3.3 0-5.5-2.3-5.5-5.4m16 3.7l1.4-1.6c1 .8 1.9 1.3 3.1 1.3.9 0 1.5-.4 1.5-1s-.4-.9-2.1-1.3c-2.1-.5-3.5-1.1-3.5-3.2 0-1.9 1.5-3.2 3.7-3.2 1.5 0 2.8.5 3.9 1.3l-1.2 1.7c-.9-.6-1.9-1-2.7-1-.9 0-1.4.4-1.4.9 0 .7.5.9 2.3 1.4 2.1.6 3.3 1.3 3.3 3.2 0 2.1-1.6 3.3-3.9 3.3-1.5-.2-3.1-.7-4.4-1.8m12.9-2.7l-4-6.4h2.7l2.5 4.3 2.6-4.3h2.6l-4 6.4v4.2h-2.4m6.6-1.5l1.4-1.6c1 .8 1.9 1.3 3.2 1.3.9 0 1.5-.4 1.5-1s-.4-.9-2.1-1.3c-2.1-.5-3.5-1.1-3.5-3.2 0-1.9 1.5-3.2 3.7-3.2 1.5 0 2.8.5 3.9 1.3l-1.2 1.7c-.9-.6-1.9-1-2.7-1-.9 0-1.4.4-1.4.9 0 .7.5.9 2.3 1.4 2.1.6 3.3 1.3 3.3 3.2 0 2.1-1.6 3.3-3.9 3.3-1.6-.2-3.2-.7-4.5-1.8m12.6-6.9h-3.2v-2.2h8.7v2.2h-3.2v8.4h-2.3m7.3-10.6h8v2.1h-5.7v2.2h5v2h-5v2.2h5.7v2.1h-8m10.1-10.6h2.5l2.8 4.5 2.8-4.5h2.5v10.6h-2.3v-6.9l-3 4.5h-.1l-2.9-4.4v6.8h-2.3m12.4-1.5l1.4-1.6c1 .8 1.9 1.3 3.1 1.3.9 0 1.5-.4 1.5-1s-.4-.9-2.1-1.3c-2.1-.5-3.5-1.1-3.5-3.2 0-1.9 1.5-3.2 3.7-3.2 1.5 0 2.8.5 3.9 1.3l-1.2 1.7c-.9-.6-1.9-1-2.7-1-.9 0-1.4.4-1.4.9 0 .7.5.9 2.3 1.4 2.1.6 3.3 1.3 3.3 3.2 0 2.1-1.6 3.3-3.9 3.3-1.6-.2-3.2-.7-4.4-1.8m-97.6-79.4c-40.8 0-78.2-18.7-102.7-51.4l-2.3-3.1 2.3-3.1c24.5-32.7 62-51.4 102.7-51.4s78.2 18.7 102.7 51.4l2.3 3.1-2.3 3.1c-24.5 32.7-62 51.4-102.7 51.4M74.1 130c22.6 28.1 55.9 44.2 92.2 44.2s69.6-16.1 92.2-44.2c-22.6-28.1-55.9-44.2-92.2-44.2-36.3 0-69.6 16-92.2 44.2"/>
  <path
    d="M168.8 92.5c-21.6-2.6-40.2 12.4-43.3 32.6-.2 1 1.1 1.5 1.7.8 6.9-8.7 17.7-14.3 29.4-13.9 12 .4 22.5 6.7 28.7 16 .9 1.4.6 1.9-.5.8-5.2-5-12.6-7.7-20.6-6.3-8.6 1.4-17.4 9.8-19.2 18.3-3.2 15.4 8.4 28.9 23.1 29 22.6 0 39.2-24.1 33.8-47.8-3.7-15.9-16.9-27.5-33.1-29.5M40.5 195.1H28.7v35.5h29.7v-10.2H40.5m21.6-25.3H74v35.5H62.1zm34.6-.8c-10.9 0-19.4 8.2-19.4 18.5v.1c0 9.6 7.3 17.3 17.1 18.3l5 12.4h11.9l-5.7-14.3c6.3-3 10.5-9.2 10.5-16.5v-.1c-.1-10.3-8.5-18.4-19.4-18.4m-7.5 18.4c0-4.2 2.8-7.9 7.3-7.9 4.6 0 7.5 3.8 7.5 8v.1c0 4.2-2.8 7.9-7.4 7.9-4.6 0-7.5-3.8-7.5-8v-.1zm53.9 2.1c0 4.3-2.3 6-5.5 6s-5.5-1.9-5.5-6.3v-19.4H120v19.6c0 11.8 6.8 16.6 17.4 16.6 10.6 0 17.6-4.8 17.6-16.9v-19.3h-12.1v19.7zm16.9-19.7h11.9v35.5H160zm72.5 1.6c-9.2 0-15.9 7.7-15.9 17.3v.1c0 10.3 7.4 17.3 16.6 17.3 6.3 0 10.3-2.5 13.7-6.2l-3.1-2.8c-2.7 2.8-5.9 4.7-10.5 4.7-5.9 0-11-4-11.7-11.2H248c.1-.6.1-1 .1-1.6-.1-9.8-5.7-17.6-15.6-17.6m-10.9 15.4c.6-6.5 5-11.3 10.8-11.3 6.6 0 10.1 5.3 10.6 11.3h-21.4zm89.9 2.1c0-9.7-5.7-17.5-15.5-17.5-9.2 0-15.9 7.7-15.9 17.3v.1c0 10.3 7.4 17.3 16.6 17.3 6.3 0 10.3-2.5 13.7-6.2l-3.1-2.8c-2.7 2.8-5.9 4.7-10.5 4.7-5.9 0-11-4-11.7-11.2h26.3c.1-.7.1-1.1.1-1.7m-26.4-2.1c.6-6.5 5-11.3 10.8-11.3 6.6 0 10.1 5.3 10.6 11.3h-21.4zm-107.1-17h13.6c14.1 0 21.1 6.9 21.1 17.4v.1c0 10.5-7.2 17.9-21.5 17.9H178v-35.4zm11.9 10.3v14.8h2c5.4 0 8.9-2.2 8.9-7.3v-.1c0-5.1-3.5-7.3-8.9-7.3h-2zm90.2-8h-5.3L264.1 225l-12-27.6h-5.5l15.3 33.4-5 12.5h4.5"/>
  <path fill="none" d="M0 0h340.2v340.2H0z"/>
</svg>
