<svg xmlns="http://www.w3.org/2000/svg" viewBox="0 0 360 360">
  <path
    d="M54.545 174.545h10.91v-10.91h-21.82v21.82h10.91v-10.91zM120 43.635H43.636V120H120V43.636zm-10.91 65.456H54.546V54.546h54.545v54.546zM76.365 141.82h-21.82v-10.91H43.637v21.82h32.728v-10.91zm-10.91 87.273v-32.727h10.91v-10.908h-21.82v43.636h10.91zm10.91-76.362h-10.91v10.91h10.91v-10.91zm-10.91 141.817h32.728v-21.817H65.455v21.817zm32.728-229.09H65.455v32.727h32.727V65.455zM76.364 218.182h10.91v-10.908h-10.91v10.908zm21.818 43.636H65.455v10.908h32.727v-10.908zm-10.91-98.182v10.91h10.91v-10.91h-10.91zm10.91-10.91h10.91V141.82H98.18v10.91zm-54.546 120h10.91V250.91h54.544v21.817H120V240H43.636v32.727zM109.09 130.91v10.908H120v-10.91h-10.91zm0 21.818v10.91H120v-10.91h-10.91zM120 185.455v-10.91H98.182v10.91h-10.91v10.908h21.82v-10.908H120zm-10.91 120H54.546v-32.728h-10.91v43.636H120v-43.636h-10.91v32.728zM120 196.363h-10.91v10.91h32.73v-10.91h-10.91v-10.908H120v10.908zm-10.91 21.82v10.908h21.82v-10.908h-21.82zm43.637-120h-10.91v10.908h10.91V98.183zm0 65.453H120v10.91h10.91v10.91h21.817v10.907h10.91v-21.818h-10.91v-10.91zm-10.91 141.82H130.91v10.907h21.817v-21.818h-10.91v10.91zm32.728-240v-21.82h-32.727v10.91h-10.91v32.727h10.91V65.455h10.91v21.818h10.908V65.455h10.91zm-10.91 87.272h-10.908v10.91h10.91v-10.91zm0 87.272v-10.91h-10.908v-10.908h-10.91v10.91H130.91V240h10.908v10.91h10.91V240h10.908zm-10.908 21.818h-10.91v10.908h32.728V250.91h-21.818v10.908zm10.91 10.91h-10.91v21.817h10.91v-21.817zm0-185.455v10.91h10.908v-10.91h-10.91zm32.726-32.728h10.91v-10.91h-21.818v21.82h10.908v-10.91zm0 218.183h-21.818v10.91h10.91v10.907h-10.91v10.91h-10.91v10.908h32.728v-21.818h10.91v-10.908h-10.91v-10.91zm10.91-196.364v-10.91h-10.91v10.91h10.91zm21.818 10.91v-21.82h-10.908v10.91h-10.908v10.91h21.817zm-21.817 54.544h-10.91v-10.91h-10.908v-21.817h10.908v21.82h10.91V98.18h-10.91V76.364h-10.908v-10.91h-10.91v21.82h10.91V98.18h-10.91V120h-10.91v-10.91h-10.908V120h-10.91v-10.91H130.91v32.73H120v10.908h21.818v-10.91h21.818V130.91h10.91v10.91h-10.91v10.908h54.545V130.91h-10.907v10.908zm10.91-43.636v32.728h10.908V98.182h-10.908zm0 218.18h10.908v-21.817h-10.908v21.818zM240 185.456h-32.727v10.908h-10.91v-10.908h10.91v-21.82h21.817v-10.908h-54.545v10.91h-10.91v10.908h21.82v-10.91h10.908v10.91h-10.908v10.91h-10.91v10.908h10.91v10.91h-10.91v21.817h10.91v-10.91h10.908v10.91h21.818v21.818h-10.907V240h-32.728v10.91h21.818v10.908h10.91v10.908h65.453V218.18h-10.908v-10.907h-10.91v-10.91H240v-10.908zm-32.727 32.727v-10.908h21.817v10.908h-21.817zm54.545 10.91v32.727H229.09v-32.73h32.728zm-32.727-98.183v21.817H240v-10.91h10.91V130.91h-21.82zm21.82 32.726h10.908v-10.91H240v10.91h-10.91v10.91H240v10.91h10.91v10.907h10.908v-21.818h-10.91v-10.91zm0 76.364H240v10.91h10.91V240zm-32.728 32.728v10.91h32.728v-10.91h-32.728zM240 316.363h10.91v-10.908H240v10.908zM240 120h32.727v-10.91H250.91V54.546h21.817v-10.91H240V120zm10.91 32.727h21.816v-10.91H250.91v10.91zm10.908 130.91h-10.91v21.818h21.818v-10.91h-10.908v-10.908zm0-185.455h10.908V65.455h-10.908v32.727zm0 76.363h10.908v-10.91h-10.908v10.91zm21.82-21.817h-10.91v21.818h10.91v-21.818zm-10.91 43.635v10.91h10.91v-10.91h-10.91zm0 54.546h10.91V240h-10.91v10.91zm0 21.818v10.91h10.91v-10.91h-10.91zm0 43.635h10.91v-10.908h-10.91v10.908zm21.817-250.908h-21.817v32.727h21.817V65.455zm10.91 65.454h-32.728v21.817h32.728V130.91zM283.637 240h10.908v-32.727h-10.908V240zm0 54.545h10.908v-10.908h-10.908v10.908zm10.908-130.91h10.91v21.82h10.908v-32.728h-21.818v10.91zm0 43.638h10.91v10.908h10.908v-21.817h-10.908v-10.908h-10.91v21.818zm0 76.364h10.91v32.727h10.908v-43.636h-21.818v10.91zm-21.817-240v10.908h32.728v54.545h-32.728V120h43.636V43.636h-43.636zm32.727 218.18h-32.728v10.91h43.636V240h-10.908v21.818z"/>
</svg>
