<?xml version="1.0" standalone="no"?>
<!DOCTYPE svg PUBLIC "-//W3C//DTD SVG 20010904//EN"
 "http://www.w3.org/TR/2001/REC-SVG-20010904/DTD/svg10.dtd">
<svg version="1.0" xmlns="http://www.w3.org/2000/svg"
 width="16.000000pt" height="16.000000pt" viewBox="0 0 16.000000 16.000000"
 preserveAspectRatio="xMidYMid meet">
<metadata>
Created by potrace 1.11, written by Peter Selinger 2001-2013
</metadata>
<g transform="translate(0.000000,16.000000) scale(0.004444,-0.004444)"
fill="#000000" stroke="none">
<path d="M1585 2650 c-452 -51 -854 -239 -1178 -550 -94 -90 -257 -280 -257
-300 0 -15 118 -160 199 -244 427 -445 1036 -668 1652 -606 456 46 863 234
1192 550 95 90 257 280 257 300 0 20 -162 210 -257 300 -300 288 -656 466
-1073 535 -113 19 -422 27 -535 15z m413 -171 c350 -38 691 -178 957 -392 80
-64 285 -270 285 -286 0 -15 -127 -152 -211 -227 -242 -216 -530 -359 -868
-431 -115 -25 -145 -27 -356 -28 -200 0 -245 3 -340 22 -308 63 -544 166 -781
344 -95 71 -248 216 -298 281 l-28 38 30 37 c44 56 217 221 289 276 367 281
858 417 1321 366z"/>
<path d="M1601 2374 c-134 -36 -290 -152 -360 -268 -57 -96 -97 -227 -75 -249
4 -4 39 24 79 61 121 113 274 171 419 158 80 -7 198 -45 259 -82 47 -29 128
-104 159 -148 21 -28 21 -28 -30 7 -79 54 -139 70 -241 65 -104 -5 -168 -34
-247 -115 -87 -87 -124 -198 -105 -314 36 -218 238 -353 463 -309 199 38 375
214 434 430 21 80 24 243 5 320 -50 209 -230 391 -437 444 -77 20 -249 20
-323 0z"/>
</g>
</svg>
