<?xml version="1.0" encoding="utf-8"?>
<!-- Generator: Adobe Illustrator 15.0.0, SVG Export Plug-In . SVG Version: 6.00 Build 0)  -->
<!DOCTYPE svg PUBLIC "-//W3C//DTD SVG 1.1//EN" "http://www.w3.org/Graphics/SVG/1.1/DTD/svg11.dtd">
<svg version="1.1" id="Layer_1" xmlns="http://www.w3.org/2000/svg" xmlns:xlink="http://www.w3.org/1999/xlink" x="0px" y="0px"
	 width="360px" height="230px" viewBox="0 0 360 230" enable-background="new 0 0 360 230" xml:space="preserve">
<path id="eye" fill="#010101" d="M294.8,78c-27.7-37-70.2-58.2-116.2-58.2C132.5,19.8,90.1,41,62.4,78l-2.6,3.5l2.6,3.5
	c27.7,37,70,58.2,116.2,58.2c46.1,0,88.5-21.2,116.2-58.2l2.6-3.5L294.8,78z M178.6,131.6c-41.1,0-78.8-18.2-104.3-50
	c25.6-31.9,63.3-50,104.3-50c41.1,0,78.8,18.2,104.3,50C257.3,113.4,219.6,131.6,178.6,131.6z M181.4,39.2
	c-24.4-2.9-45.5,14-49,36.9c-0.2,1.1,1.2,1.7,1.9,0.9c7.8-9.8,20-16.2,33.3-15.7c13.6,0.5,25.5,7.6,32.5,18.1c1,1.6,0.7,2.1-0.6,0.9
	c-5.9-5.7-14.3-8.7-23.3-7.1c-9.7,1.6-19.7,11.1-21.7,20.7c-3.6,17.4,9.5,32.7,26.1,32.8c25.6,0,44.4-27.3,38.2-54.1
	C214.7,54.6,199.7,41.4,181.4,39.2z"/>
<path id="LIQUIDeye" fill="#010101" d="M95.5,154.4c-12.3,0-22,9.3-22,20.9v0.1c0,10.9,8.3,19.6,19.3,20.7l5.7,14H112l-6.5-16.2
	c7.1-3.4,11.9-10.4,11.9-18.7v-0.1C117.4,163.5,107.8,154.4,95.5,154.4z M103.8,175.4c0,4.8-3.2,8.9-8.4,8.9s-8.5-4.3-8.5-9.1v-0.1
	H87c0-4.8,3.2-8.9,8.3-8.9c5.2,0,8.5,4.3,8.5,9.1V175.4z M147.8,177.6h0.2c0,4.9-2.6,6.8-6.2,6.8c-3.6,0-6.2-2.1-6.2-7.1v-22h-13.7
	v22.2c0,13.4,7.7,18.8,19.7,18.8c12,0,19.9-5.4,19.9-19.1v-21.8h-13.7V177.6z M56.4,195.5h13.5v-40.2H56.4V195.5z M31.9,155.3H18.6
	v40.2h33.6v-11.5H31.9V155.3z M167.1,195.5h13.5v-40.2h-13.5V195.5z M202.9,155.3h-15.4v40.1h14.9c16.2,0,24.3-8.4,24.3-20.3V175
	C226.8,163.1,218.8,155.3,202.9,155.3z M213.3,175.4c0,5.8-4,8.3-10.1,8.3H201v-16.6h2.3c6.1,0,10.1,2.5,10.1,8.3V175.4z
	 M338.6,176.9c0-11-6.5-19.8-17.5-19.8c-10.4,0-18,8.7-18,19.6v0.1c0,11.7,8.4,19.6,18.8,19.6c7.1,0,11.7-2.8,15.5-7l-3.5-3.2
	c-3.1,3.2-6.7,5.3-11.9,5.3c-6.7,0-12.4-4.5-13.2-12.7h29.8C338.6,178,338.6,177.6,338.6,176.9z M308.7,174.5
	c0.7-7.4,5.7-12.8,12.2-12.8c7.5,0,11.4,6,12,12.8H308.7z M297,157.9l-12.1,31.2l-13.6-31.2h-6.2l17.3,37.8l-5.7,14.1h5.1l21.2-51.9
	H297z M249.2,157.1c-10.4,0-18,8.7-18,19.6v0.1c0,11.7,8.4,19.6,18.8,19.6c7.1,0,11.7-2.8,15.5-7l-3.5-3.2
	c-3.1,3.2-6.7,5.3-11.9,5.3c-6.7,0-12.4-4.5-13.2-12.7h29.9c0.1-0.7,0.1-1.1,0.1-1.8C266.7,165.9,260.4,157.1,249.2,157.1z
	 M236.8,174.5c0.7-7.4,5.7-12.8,12.2-12.8c7.5,0,11.4,6,12,12.8H236.8z"/>
</svg>
