<?xml version="1.0" encoding="utf-8"?>
<!-- Generator: Adobe Illustrator 15.0.0, SVG Export Plug-In . SVG Version: 6.00 Build 0)  -->
<!DOCTYPE svg PUBLIC "-//W3C//DTD SVG 1.1//EN" "http://www.w3.org/Graphics/SVG/1.1/DTD/svg11.dtd">
<svg version="1.1" id="Layer_1" xmlns="http://www.w3.org/2000/svg" xmlns:xlink="http://www.w3.org/1999/xlink" x="0px" y="0px"
	 width="824px" height="341px" viewBox="0 0 824 341" enable-background="new 0 0 824 341" xml:space="preserve">
<path fill-rule="evenodd" clip-rule="evenodd" fill="#31B44A" stroke="#000000" stroke-miterlimit="10" d="M177,43
	c0.4,2.1,0.2,1.9,1,3c1.5-2.5-0.2-1.1,3-2c0-1,0-2,0-3c-1.3,0-2.7,0-4,0c-0.7-1.3-1.1-2.1-2-3c0.3-0.3,0.7-0.7,1-1
	c1.9-1.5,3.6-1.8,7-2c2.4,5.2,14.1,9.5,16,9c0.7-0.7,1.3-1.3,2-2c0-0.7,0-1.3,0-2c-0.3-0.3-0.7-0.7-1-1c-5.7,0.2-7.5,0.2-9-4
	c0.3,0,0.7,0,1,0c1.1-2.9,0.2-1.8,3-3c1.5-1,4.1-1,7-1c0,0.3,0,0.7,0,1c-3.2,1.3-2.6,0.9-3,5c2.3-0.2,2.8-0.2,4-1
	c-2.9-1.1-1.8-0.2-3-3c3.8-0.9,5.6-1.9,11-2c6.3,6.6,6,1.8,11,2c5.1,0.2,3.7,3.7,11,3c-0.4,2.9-1.6,1.3,1,3c1.3-0.9,2.5-0.9,5-1
	c3.5,7.3,12.1,5.4,18,10c-0.3,0-0.7,0-1,0c-1.4,1.3-3.1,2.2-5,3c-1.9-3-4.1-3-10-3c0,0.3,0,0.7,0,1c0.7,0,1.3,0,2,0
	c2.7,3,5.7,2.2,7,7c-2.7,0.9-2.6,1-4,3c-3.6-1.3-9.3-1.4-11-2c-3.8-1.3-3.4-3.8-10-4c0-1,0-2,0-3c1,0,2,0,3,0c-0.3-2.5-0.7-0.5,0-3
	c1,0,2,0,3,0c0-1,0-2,0-3c-3.9-0.4-7.5-0.2-9-1c-1-1.3-2-2.7-3-4c-1-0.3-5.9,1.3-9,1c0,0.3,0,0.7,0,1c1,1.7,0.8,2.6,1,6
	c-2.6,0.6-5.3,1.5-7,3c0.7,0,1.3,0,2,0c1.6,1.6,3.6,2.2,5,4c0.3,0.3,0.7,0.7,1,1c-1,0-2,0-3,0c-5.6-3-8.8,3.6-10-4c1-1,2-2,3-3
	c-1.3,0-2.7,0-4,0c0,1.3,0,2.7,0,4c-7,3.3-16.5,4.1-18,13c5.4,0.7,3.1,2.5,6,4c2.7,0,5.3,0,8,0c4.4,1.7,7.6,3.8,15,4
	c0,3.6,0.5,5.4,1,8c3,0.4,4.1,2.1,5,1c0.7-0.7,1.3-1.3,2-2c-1.2-1.5-2.3-4.2-3-6c4.5-0.2,6.5-0.8,8-4c-2-1.7-3.9-3.2-5-6
	c4.3-2.8-0.1-3.6,2-7c1.1-0.8,0.9-0.6,3-1c4.8,3,13.3,3.3,17,4c-0.3,4.2-0.5,5.3,5,6c2.3-2,3.4-2.1,5-5c0.3,0.3,0.7,0.7,1,1
	c1.4,1.1,4.9,3.6,6,5c0.7,2,1.3,4,2,6c3.6,2.8,8.5-0.4,12,6c0.6,0.8-0.2,4.5,0,8c3.1-0.4,2.4-0.7,5,0c0.1,3,1,1.8,2,6
	c-3.2-0.5-12.2-0.4-16-3c3.3-1.3,4.4-4.2,6-7c-1.3,0-2.7,0-4,0c-4,4.6-12.9,2-19,3c0,0.3,0,0.7,0,1c1.7,0,3.3,0,5,0
	c0.3,2.7,0.7,5.3,1,8c2.3,0,4.7,0,7,0c0,0.7,0,1.3,0,2c-0.7,0-1.3,0-2,0c-2.2,1.5-6.1,2.5-9,3c0-0.7,0-1.3,0-2c0.7-0.7,1.3-1.3,2-2
	c-0.3,0-0.7,0-1,0c-2.5,2.4-4.4,1.2-8,3c-5.2,2.6-2.2,6.7-11,8c-0.6,3.7-1.6,4.3-3,7c-1-0.7-2-1.3-3-2c0,1,0,2,0,3
	c1.4,2.2,0.5,3.3,0,6c-4.7,2-7.5,4.9-11,8c1.2,4.9,2.9,7.2,3,14c-2.1-0.4-1.9-0.2-3-1c-2.7-2.7-3.5-6-5-10c-2.2,0-10.4-2.3-13-1
	c-0.2,0.1-1.3,2.8-2,3c-6.1,1.9-15.6-6.7-16,8c-3.9,4.9-0.6,13.7,5,15c2.4,1.5,4.4,0.4,8,0c1.4-3.9,0.9-5.4,6-6c1.2-0.8,1.7-0.8,4-1
	c0.3,0.3,0.7,0.7,1,1c-1.1,4.1-3,8.3-4,13c0.3,0,0.7,0,1,0c1.7-1.1,4.9-1.1,8-1c1.5,2.5,2.3,2.3,3,6c-0.7,1-1,3-1,7
	c2.5,1.5,2.3,2.3,6,3c0.3,0.3,0.7,0.7,1,1c6.8-2,2.2-0.8,10,0c2.2-5.2,5.2-6.6,11-8c0,3.2-1.7,1.3,1,3c1.2-2.1,0.7-1.9,3-3
	c4.2,5.7,15.6,5,20,3c1.8,13.9,15.9,7.9,22,16c1.9,2.7,2,7.2,4,10c3.2-2.1,9.4,3.6,12,5c1-0.3,2-0.7,3-1c8.7,1.6,19.3,4.9,19,16
	c-11,7.6-6.9,23.4-16,31c-7.3,4.3-15.1,0.7-15,13c-4.6,4.5-8,12.2-14,15c-3.1,2.1-6.5,0.2-9-1c0,0.3,0,0.7,0,1c2.7,1.4,4.4,3.4,3,6
	c-0.3,1-0.7,2-1,3c-3.3,0.3-6.7,0.7-10,1c0,1.3,0,2.7,0,4c-1,0.3-2,0.7-3,1c-1.7,1.1-2.1-1-4,2c0.8,1.1,0.6,0.9,1,3
	c-2.8,1.5-3.6,3.4-7,5c1.3,3.3,2.7,2.7,4,6c-6.3,1.2-6.9,6.8-9,10c4.5,1.1,5.9,3.7,11,5c0,0.3,0,0.7,0,1c-4.4,0.2-4.4,0.5-8,0
	c-0.3,2.2,1,1.1-1,2c-2.7-2.9-3.3-2.2-8-3c-1-3.2,0.2-3.7-2-5c-1.5-0.7-0.1-0.1-3,0c0-0.7,0-1.3,0-2c0.3-0.3,0.7-0.7,1-1
	c-2.1-0.4-1.9-0.2-3-1c1.6-1.5,2.2-2.5,3-5c-0.7,0-1.3,0-2,0c-1.3,2.5,0.4,0.7-2,2c0-1,0-2,0-3c1.3-0.5,3-1.2,4-2
	c-2.1-1.2-1.9-0.7-3-3c2.2-2,0.9-2,2-5c0.3,0.3,0.7,0.7,1,1c0.7,0.8,1.3,2.2,2,3c0.3-3,0.7-6,1-9c-0.7,0-1.3,0-2,0
	c-0.4,3.6,0.5,2.5-2,4c2.3-21.1,9.2-35.7,9-58c-11.5-3.8-21.6-21.1-26-32c2.3-1.5,3-2.1,4-5c-2.5-0.4-1.6,0.6-2-3
	c4.1-4,7.9-7.9,8-16c-1.2-1.5-2.2-4.2-3-6c-1.8,0.6-1,0.2-2,1c-0.9,0.9-1.3,1.8-2,3c-3.7-1.6-10.8-3.8-13-7c-1.6-2.3-0.7-4.6-3-6
	c-3.7-1-7.3-2-11-3c-1.7-1.7-3.3-3.3-5-5c-2.9-0.8-2.8,3.1-7,2c-4.2-1.1-13.5-5.2-17-8c-3.2-2.6,0.1-4-1-7c-1.1-2.9-6.7-4.9-9-7
	c-3.5-3.1-8-10.2-10-15c-1,0-2,0-3,0c0,0.7,0,1.3,0,2c1.9,1.3,0.9,1.3,4,2c1.1,7,6.1,9.2,8,16c-0.7,0-1.3,0-2,0
	c-3.1-4.8-7.8-7.6-11-12c0.7-0.7,1.3-1.3,2-2c-4.9-1.9-3.3-4.2-6-8c-2.4-3.4-8.7-3.6-11-7c-1.5-2.3,1.2-3.5,0-5
	c-1.9-2.4-4.7-1.2-6-5c-2.1-6.3,2.6-11,0-18c-1.3-3.5-4.6-2.7-7-5c-3.5-3.3-2-6.6-8-8c0-1,0-2,0-3c-7-1.4-5.6-3.3-7-8
	c-8.3,0.1-7.9-2.5-12-4c-1.7,0.3-3.3,0.7-5,1c-5.2-1-11.6-2.7-16-4c-2.1,3.3-3.8,4.7-9,5c-0.4-2.1-0.2-1.9-1-3
	c-1.4,4.4-13.7,11.8-17,10c-0.8-1-0.4-0.3-1-2c3.2-0.4,3.8-1,6-2c0-0.7,0-1.3,0-2c-1,0-2,0-3,0c-0.6,0.2-3.8,0.1-7,0
	c0-1.3,0-2.7,0-4c-3.4,0.8-7.3-0.3-9-4c2.4-1.4,9.5-3.5,11-6c-0.7,0-1.3,0-2,0c-2.8,1.9-8,0.7-11,0c-0.3-1-0.7-2-1-3
	c0.3-0.3,0.7-0.7,1-1c3.9-0.1,8.7,0.4,11-1c-4-0.4-9.4-2.1-11-5c8.2-0.4,14.7-4.5,22-6c6.7-1.4,39.6,4.4,46,6c8,2.1,15.1-2.7,20-4
	c3.5-0.9,4.1,2.5,6,3c0.7-0.7,1.3-1.3,2-2c2.8-0.4,1,0.7,2,2c1.7,0.3,19.9,0,20,0c-7.3-1.6-3.6-6.4-7-8c-4.9,4.5-9.4,3.8-16,2
	c0.3-0.3,0.7-0.7,1-1c3-3.7,1.6-5.2,10-5c9.1,5.4,21.7,2.2,31,7c-1.1-2.1-1.4-1.8-2-5c0.7,0,1.3,0,2,0c4.7,3.7,8.1,6.6,15,8
	c0,0.7,0,1.3,0,2c-2.8,0.4-7,1.5-9,3C166.1,44.1,169,43.5,177,43z"/>
<path fill-rule="evenodd" clip-rule="evenodd" fill="#31B44A" stroke="#000000" stroke-miterlimit="10" d="M133,38
	c1.8,1.3,4.2,1.2,6,0C137,38,135,38,133,38z"/>
<path fill-rule="evenodd" clip-rule="evenodd" fill="#31B44A" stroke="#000000" stroke-miterlimit="10" d="M242,40c1,0.3,2,0.7,3,1
	c0,0.3,0,0.7,0,1c-1,0-2,0-3,0C242,41.3,242,40.7,242,40z"/>
<path fill-rule="evenodd" clip-rule="evenodd" fill="#31B44A" stroke="#000000" stroke-miterlimit="10" d="M152,41
	c-2.7,1.8-8.6,2.3-12,3c0,0.3,0,0.7,0,1c0.7,0,1.3,0,2,0c4.2-2.4,8.5,0.1,13-3C154,41.7,153,41.3,152,41z"/>
<path fill-rule="evenodd" clip-rule="evenodd" fill="#31B44A" stroke="#000000" stroke-miterlimit="10" d="M134,42c0,0.7,0,1.3,0,2
	c1.3,0,2.7,0,4,0c0-0.3,0-0.7,0-1c-0.3-0.3-0.7-0.7-1-1C136,42,135,42,134,42z"/>
<path fill-rule="evenodd" clip-rule="evenodd" fill="#31B44A" stroke="#000000" stroke-miterlimit="10" d="M234,47
	c1,0.8,0.3,0.4,2,1C235,47.2,235.7,47.6,234,47z"/>
<path fill-rule="evenodd" clip-rule="evenodd" fill="#31B44A" stroke="#000000" stroke-miterlimit="10" d="M111,85c0,0.7,0,1.3,0,2
	c0.3,0,0.7,0,1,0c0-0.7,0-1.3,0-2C111.7,85,111.3,85,111,85z"/>
<path fill-rule="evenodd" clip-rule="evenodd" fill="#31B44A" stroke="#000000" stroke-miterlimit="10" d="M113,87c0,0.7,0,1.3,0,2
	c1,0.3,2,0.7,3,1C115,89,114,88,113,87z"/>
<path fill-rule="evenodd" clip-rule="evenodd" fill="#FFFFFF" stroke="#000000" stroke-miterlimit="10" d="M196,88
	c-1.8,2.6-4,3.6-7,5c0,0.3,0,0.7,0,1c1.3,0,2.7,0,4,0c2.4-2.7,4.1-1.4,9-1c0,0.7,0,1.3,0,2c-3.2,1.5-4.2,1.7-5,6c0.7,0,1.3,0,2,0
	c0-0.3,0-0.7,0-1c1.8-2.1,0.9-2.7,4-4c1-0.3,0.4-0.8,1,0c1,0.3,2,0.7,3,1c-0.4,2.4-0.6,1.5,0,4c0.8-1,0.4-0.3,1-2
	c0.8-1.1,1.5-3.7,2-5c-6.2-0.2-7-1.9-9-6C199.3,88,197.7,88,196,88z"/>
<path fill-rule="evenodd" clip-rule="evenodd" fill="#31B44A" stroke="#000000" stroke-miterlimit="10" d="M217,100
	c1.8,1.2,3.3,1.1,5,0C220.3,100,218.7,100,217,100z"/>
<path fill-rule="evenodd" clip-rule="evenodd" fill="#FFFFFF" stroke="#000000" stroke-miterlimit="10" d="M212,102
	c-1.4,1.3-1.8,1.4-4,2c0,0.3,0,0.7,0,1c1.3,0,2.7,0,4,0c1-0.8,2.7-1.4,4-2c0-0.3,0-0.7,0-1C214.7,102,213.3,102,212,102z"/>
<path fill-rule="evenodd" clip-rule="evenodd" fill="#31B44A" stroke="#000000" stroke-miterlimit="10" d="M205,147
	c9.2-0.4,19,2.4,22,8c-2.3,0-4.7,0-7,0c-3.5-8.6-15.7-3.8-17-5C203.7,149,204.3,148,205,147z"/>
<path fill-rule="evenodd" clip-rule="evenodd" fill="#31B44A" stroke="#000000" stroke-miterlimit="10" d="M230,154
	c3.2,1,6.8,1.8,11,3c0,0.7,0,1.3,0,2c-0.7,0-1.3,0-2,0c-1.9-0.9-5.3,0.1-8,0C230.7,157.3,230.3,155.7,230,154z"/>
<path fill-rule="evenodd" clip-rule="evenodd" fill="#31B44A" stroke="#000000" stroke-miterlimit="10" d="M227,157
	c1.1,1.7,1.8,1.1,0,2C227,158.3,227,157.7,227,157z"/>
<path fill-rule="evenodd" clip-rule="evenodd" fill="#31B44A" stroke="#000000" stroke-miterlimit="10" d="M218,158c1.3,0,2.7,0,4,0
	c0,0.7,0,1.3,0,2C218.9,159.4,219.6,159.8,218,158z"/>
<path fill-rule="evenodd" clip-rule="evenodd" fill="#31B44A" stroke="#000000" stroke-miterlimit="10" d="M243,158c1.3,0,2.7,0,4,0
	c0,0.7,0,1.3,0,2c-0.7,0-1.3,0-2,0C244.3,159.3,243.7,158.7,243,158z"/>
<path fill-rule="evenodd" clip-rule="evenodd" fill="#31B44A" stroke="#000000" stroke-miterlimit="10" d="M233,176
	c0.4,2.1,0.2,1.9,1,3c0-1,0-2,0-3C233.7,176,233.3,176,233,176z"/>
<path fill-rule="evenodd" clip-rule="evenodd" fill="#31B44A" stroke="#000000" stroke-miterlimit="10" d="M26,234
	c5.3,0,10.7,0,16,0c0,5.3,0,10.7,0,16c-5.3,0-10.7,0-16,0C26,244.7,26,239.3,26,234z"/>
<path fill-rule="evenodd" clip-rule="evenodd" fill="#31B44A" stroke="#000000" d="M440,264c0.8,3.2-0.5,1.5,2,3c0.6-3.1,1.8-6,3-9
	c0.8,1,0.4,0.3,1,2c0.8,1.2,0.4,0.9,1,3c1.7-1.7,3.3-3.3,5-5c2.4,1.2,1.7,2,4,1c6-3,4.7-7,15-7c0,0.7,0,1.3,0,2c1.8,2.4,3.1,9,2,11
	c-5,11.4-17.3,14.2-31,15c-2.2-4.4-2.8-11.8-5-15C438.1,264.2,437.9,264.4,440,264z"/>
<path fill-rule="evenodd" clip-rule="evenodd" fill="#31B44A" stroke="#000000" stroke-miterlimit="10" d="M797,302
	c-1.3,0-2.7,0-4,0c-1.6,4-1.9,5.3-7,6c-1.7-1.3-3.6-1.4-5-3c4.2-2.6,11.8-9.8,16-11c0.9,0.6,2,0.3,4,1c0-1,0-2,0-3c-0.7,0-1.3,0-2,0
	c-0.9-1.2,1.8-4.1,2-5c-1.7-2.3-3.3-4.7-5-7c0.7,0,1.3,0,2,0c4.4,5.3,5.7,5.2,12,7C806.7,293.1,798.5,295,797,302z"/>
<path fill-rule="evenodd" clip-rule="evenodd" fill="#31B44A" stroke="#000000" stroke-miterlimit="10" d="M261,318
	c2.6,0.2,3.4,0.4,5,1c-1,0.8-0.3,0.4-2,1c-1.8,1.2-3,0.3-4,1c-0.8-1-0.4-0.3-1-2C260.8,318.4,260,318.8,261,318z"/>
<path fill-rule="evenodd" clip-rule="evenodd" fill="#31B44A" stroke="#000000" stroke-miterlimit="10" d="M236,324
	c-0.4-2.1-0.2-1.9-1-3c-0.3,0.3-0.7,0.7-1,1c-0.3,0.7-0.7,1.3-1,2C234,324,235,324,236,324z"/>
<path fill-rule="evenodd" clip-rule="evenodd" fill="#31B44A" stroke="#000000" stroke-miterlimit="10" d="M311,324
	c2.3,0.3,2.5,0.5,4,1c0,0.3,0,0.7,0,1c-0.7,0-1.3,0-2,0C312.3,325.3,311.7,324.7,311,324z"/>
<path fill-rule="evenodd" clip-rule="evenodd" fill="#57C9E8" stroke="#000000" d="M531,12c0.7,0,1.3,0,2,0c-0.8,2.1,0,1.8-1,3
	c-0.3,0.7-0.7,1.3-1,2c-2-0.7-4.7-1-8-1c0-0.7,0-1.3,0-2C525.7,13.8,529.2,13.3,531,12z"/>
<path fill-rule="evenodd" clip-rule="evenodd" fill="#57C9E8" stroke="#000000" d="M544,13c1.3,0.5,4,1.2,5,2c-1.7,0.3-3.3,0.7-5,1
	C544,15,544,14,544,13z"/>
<path fill-rule="evenodd" clip-rule="evenodd" fill="#57C9E8" stroke="#000000" d="M627,20c-7.7-0.3-10.8-2-17-2c0-0.7,0-1.3,0-2
	c3.2-0.9,3.5-1.7,8-2c1.1-0.6,3.8,0.2,6,1c-0.3,0.7-0.7,1.3-1,2c2.3-0.4,1.1-0.9,3,0C626.8,18.1,626.6,17.9,627,20z"/>
<path fill-rule="evenodd" clip-rule="evenodd" fill="#57C9E8" stroke="#000000" d="M508,14c-0.8,3.2,0.5,1.5-2,3c-1-0.8-0.3-0.4-2-1
	c0.3-0.3,0.7-0.7,1-1C506.1,14.2,505.9,14.4,508,14z"/>
<path fill-rule="evenodd" clip-rule="evenodd" fill="#57C9E8" stroke="#000000" d="M444,15c3.6,1.2,8.7-0.1,12,2c-2.8,1.5-5,2-10,2
	c-1.7-1.3-1.6-1.7-3-1c-0.3,0-0.7,0-1,0c0,0.3,0,0.7,0,1c2.1,0.4,1.9,0.2,3,1c-0.7,0-1.3,0-2,0c-2,3-4.5,4.4-9,5
	c-2.9-2.8-6.7-3.5-10-6c-0.8-1-0.4-0.3-1-2c2.3,0,4.7,0,7,0C432.9,18.2,441.1,17.6,444,15z"/>
<path fill-rule="evenodd" clip-rule="evenodd" fill="#57C9E8" stroke="#000000" d="M791,42c0-1,0-2,0-3c7,0.7,14,1.3,21,2
	c0,3.7,0,7.3,0,11c-2.1,0.4-1.9,0.2-3,1c1.9,1.7,1.7,1.4,2,5c-0.3,0-0.7,0-1,0c-6.6-4.2-14.8,3.6-19,5c-0.9,0.3-2.7-2-3-2
	c-3.4-0.5-7.8,1.8-13,2c-0.8,2.4-0.4,1.6-2,3c1,2.5,1.9,4.1,1,6c-1.7,2.4-15,11-15,11c-2-2.9-2-8.3-2-13c4.8-1.9,16.7-7.4,19-12
	c0.3-0.3,0.7-0.7,1-1c-0.7,0-1.3,0-2,0c-3.2,5.9-8.6,2.4-16,2c-3.1,4.9-2.8,6.1-11,6c-1.7,1.8-14.1-3.9-21-1c-5.3,2.2-10.2,8-16,10
	c0,0.3,0,0.7,0,1c1.3-0.3,2.7-0.7,4-1c0.3,1,0.7,2,1,3c0.3,0.1,6.6-0.3,8,0c0,1,0,2,0,3c4,4-12.5,17.3-15,22c-5.5,0.3-5.4-0.6-9,1
	c0-0.7,0-1.3,0-2c2.1-2.8-1-2.4,2-4c1.3-0.9,1.3,0.3,3-1c1.5-1.6,2.9-4.1,4-6c-0.3-0.3-0.7-0.7-1-1c-9.6,2.3-4.2,1.1-11-2
	c-2.1-1-3.7,0.5-5-1c-1.9-2.1-1.4-6.7-4-8c-4,0-8,0-12,0c-0.3,0.3-0.7,0.7-1,1c0.4,2.3,0.9,1.1,0,3c-1.5,2.5-1.5,3.2-5,4
	c-1.8,0.7-5.6-1.5-9-1c-2.8,0.4-7.7,3.6-13,2c-1-0.3-4.6-2.7-6-3c-1.1-0.2-4.5,2-7,1c-3.1-1.3-4.5-3.5-10-4c-0.3,0.3-0.7,0.7-1,1
	c0.1,2.9,1,1.4,0,3c-1.5,1-4.1,1-7,1c-5.4-6.5-20,2.5-22,7c-2-0.3-4-0.7-6-1c-0.5,2.1-0.9,3.6-2,5c-1.9-0.9-1.2-0.4-4,0
	c0.8,2.5,0.8,3.5,0,6c-5.6-1.1-18-2.5-21-1c-2.7,1.3-4.3,5.1-7,4c-4.1-1.3-3.3-4.5-6-6c-6.1-3.3-8.9,3.8-10-5c-4,0.7-8,1.3-12,2
	c0.2,4.1,0.6,6.4-2,8c-2.3-2.4-1.9-1.4-6-1c-1.9-4.3-3.2-3.2-3-8c2.6-0.2,3.4-0.4,5-1c0-0.7,0-1.3,0-2c-2.3,0-4.7,0-7,0
	c-3.2,2.4-5.8,1.3-7,6c2.8,3.4,3.3,6.4,8,8c-1,0.8-0.3,0.4-2,1c-1,3.1-1,2.9-4,4c-0.4-2.1-0.2-1.9-1-3c-3.3,2.9-4.2,1.2-8,0
	c0.3,3.6,0.7,3.3,0,6c-4.2-1-37.3,2.7-38,3c-1.1-5.6-2.3-9.8-8-11c-1.8,3.1-1.3,0.5-3,2c1.8,1.3-0.5,1.6,4,2c-0.8,3.2,0.5,1.5-2,3
	c-0.3-0.3-0.7-0.7-1-1c-0.2,2.3-0.2,2.8-1,4c-1.1-0.8-0.9-0.6-3-1c-1-3.4-3.8-8.9-6-12c-2.6-2.1-11.7-7.4-15-8c0,1,0,2,0,3
	c4.6,1.8,8.8,5.7,14,8c0,0.7,0,1.3,0,2c-1.5-0.5-1.7-0.7-4-1c-0.1,4.8-1.7,2.9-3,8c-1.7-0.3-3.3-0.7-5-1c-0.3-1-0.7-2-1-3
	c3.4,0.6,3.6,0.6,7,0c0-1,0-2,0-3c-4.6-2.4-11.6-4.3-13-10c-7.9,0.3-7.9,2-16,2c0,1.3,0,2.7,0,4c-8.5,2-4.6,5.6-9,9
	c-2.4,1.9-7,1.8-10,3c0,0.7,0,1.3,0,2c2.7,0,5.3,0,8,0c6-4.9,21.2-5.4,29-4c-0.3,3.3-0.6,5.3,0,8c7.2,2.5,12.7,5.8,20,7
	c0-1.3,0-2.7,0-4c1-0.3,2-0.7,3-1c4-1.9,12.1,3.4,17,4c5.1,0.6,12.7-3,17-4c0,0.3,0,0.7,0,1c-1.7,2.5-2.6,7.5-3,11c-2,0-0.3-1-2,0
	c7,9,7.4,17.7,13,27c1.1,1.9,3.2,0.6,5,2c3.7,2.9,3.9,6.5,6,10c4.4-0.9,13.8-3.8,16-3c0.8,1.2,0.8,1.7,1,4c-3.2,3.8-4.1,8.8-7,13
	c-1.9,2.7-5.3,4-8,6c-5.5,4.2-8.6,11.7-14,16c1.6,4.2,6.5,17.8,4,23c-2.6,6.6-11.2,5.4-13,13c2.1,2.9,1.7,5.6,1,9
	c-4.4,1.8-4.3,2.5-6,7c-0.7,0-1.3,0-2,0c0-0.7,0-1.3,0-2c-1.1-1.8-1.6-6.8-2-9c-1.8-0.6-1-0.2-2-1c-6.3,1.7-6.4,6.1-10,8
	c-1.8,0.9-5.8-1.1-6-1c-0.3,1-0.7,2-1,3c-1.7,1.1-4.5,0.9-6,2c0.9,1.9,0.4,1.2,0,4c-2.7,0-5.3,0-8,0c-1.1-2.4-3-2.2-4-4
	c-0.7-4.3-1.3-8.7-2-13c-2-5.7-5.7-6.3-6-15c12.6-17.8-5.4-21.8-6-37c1.9-2,2-3.8,2-8c-1.7-0.6-3.2-0.9-6-1c-1.1,0.8-0.9,0.6-3,1
	c-2.1-4.4-3.3-5.2-10-5c-2.9,2.4-19.1,5.4-22,4c-5.9-1.6-16.6-12.1-19-17c-6.1-8.5,2.3-9.7,0-18c-0.9-3.4-2.1-1.9-2-6
	c3.6-3.6,5.2-9.6,9-13c2.3-1,4.7-2,7-3c0.3-2.3,0.7-4.7,1-7c2.4-3.7,6.4-2.8,8-8c0.3-1,0.8-0.4,0-1c-1.8-1.6-2.5-1.7-6-2
	c-0.5-3.3-1.8-11,0-14c3.7-2.3,13.7,0,16-1c1-1.4,1.6-3.9,2-6c-3.4-1.1-3.8-2.3-8-3c0-1,0-2,0-3c10.2-0.1,17.3-4.3,23-11
	c2.3,0,4.7,0,7,0c-0.3-2.3-0.7-4.7-1-7c1-0.3,2-0.7,3-1c1.1-0.8,0.9-0.6,3-1c0.4,2.8-0.1,3.3,1,5c1.3-1.8,2-1.7,3-4
	c-1.8-1.4-2.4-3.4-4-5c-3.4,2.9-7.2,3-12,2c0-1,0-2,0-3c1.8-0.6,1-0.2,2-1c-2.4-0.8-1.6-0.4-3-2c0.3-0.3,0.7-0.7,1-1
	c0.7,0.3,1.3,0.7,2,1c0-0.3,0-0.7,0-1c-0.8-1-0.4-0.3-1-2c6-2.3,10.6-5.8,17-7c0-1.3,0-2.7,0-4c2,0,4,0,6,0c1.7-3.2,3.1-5.1,6-6
	c2.3-1.4,4.7,1.1,5,1c14.4-6.7,30-0.4,48,4c0,0.7,0,1.3,0,2c-0.7,0-1.3,0-2,0c-4,3.4-10-0.3-14,2c1.5,1.6,0.8,1.8,3,3
	c1.4,1.3,1.8,1.4,4,2c0-0.7,0-1.3,0-2c-0.7-0.7-1.3-1.3-2-2c0.7,0,1.3,0,2,0c1.8,1.6,2.5,1.7,6,2c0-0.7,0-1.3,0-2
	c-0.3-0.3-0.7-0.7-1-1c4.4-0.7,5.2-2,9-1c0.2-3.4-0.1-4.3,1-6c1.2,0.8,4.6,1.5,6,2c0,0.3,0,0.7,0,1c-2.1,0.4-1.9,0.2-3,1
	c0.7,0,1.3,0,2,0c0,0.3,0,0.7,0,1c12.2-5.6,23.8-4.3,33-5c0.4-2.8,3.4-2.2,9-2c2.2,1.9,7.7,3.4,10,2c-1.7-0.3-3.3-0.7-5-1
	c0-1.7,0-3.3,0-5c1.3,0,2.7,0,4,0c0.7-2.3,1-2.2,2-4c2,0.7,4.7,1,8,1c0,0.7,0,1.3,0,2c-2.7,3,2.8,7,1,10c-0.5,0.8-3.2,1.8-4,3
	c0.7,0,1.3,0,2,0c1.6-1.5,2-1.6,5-2c-0.4-6.1-1.5-6.1-3-11c1.3,0,2.7,0,4,0c3.8-1.4,15,1.4,18,0c-1.7-0.3-3.3-0.7-5-1c0-1,0-2,0-3
	c5.1-0.1,10.2,0.2,14,1c0-0.3,0-0.7,0-1c-2.5-1.3-0.7,0.4-2-2c5.2-0.7,12.5-3,18-4c2.3,0.3,4.7,0.7,7,1c5.1-0.1,12.7-1.8,17-5
	c-3.6-0.1-6.8,0.2-9,1c0-1,0-2,0-3c5.8-0.3,6.6-0.6,11,0c0,3.2-1.7,1.3,1,3c6.6,4.2,15.5-0.4,20,6c-3.1,0.6-2.4,0.2-4,2
	c0.3,0,0.7,0,1,0c0.3-0.3,0.7-0.7,1-1c0.3,1,0.7,2,1,3c1.2,0.6,8.8-2.1,12-1c0.3,0.7,0.7,1.3,1,2c8.7,3.3,15.6-5.7,23,0
	c-2.4,0.8-1.6,0.4-3,2c4,0.4,4.1,0.9,6,3c2.3-0.7,3.4-2.6,5-3c4.7-1.2,11.6,3.6,16,1c0.3-1,0.7-2,1-3c2.1-1,4.6,0,6-1
	c-1.7,0-3.3,0-5,0c0-0.7,0-1.3,0-2c1,0,2,0,3,0c1.2,0.8,1.7,0.8,4,1c0.3,2.6-0.5,1.8,4,2c1.2,0.7,20.2,5.1,21,5
	c1.7-0.3,7.7-2.2,11-1c1.3,1.3,2.7,2.7,4,4c3.5,0.9,11.8-2.8,17-1C787.5,40.5,787.7,41.7,791,42z"/>
<path fill-rule="evenodd" clip-rule="evenodd" fill="#57C9E8" stroke="#000000" d="M451,21c3.2,0.8,1.5-0.5,3,2
	C450.4,22.6,451.2,23.6,451,21z"/>
<path fill-rule="evenodd" clip-rule="evenodd" fill="#57C9E8" stroke="#000000" d="M554,26c-9.6-0.2-26.3,2.2-28,10
	c3,0.8,2.7,0.4,4,3c-1,0-2,0-3,0c-3.6-2.2-7.9-1.3-10-5c7.4-0.8,9.7-6.1,15-8c6.5-2.3,16.4-1.6,22-3C554,24,554,25,554,26z"/>
<path fill-rule="evenodd" clip-rule="evenodd" fill="#57C9E8" stroke="#000000" d="M716,25c6.3,0.3,11.2-0.1,17,2c0,0.3,0,0.7,0,1
	c-5.1,0.6-11.5,1-18,1c-0.3-1-0.7-2-1-3C715.8,25.4,715,25.8,716,25z"/>
<path fill-rule="evenodd" clip-rule="evenodd" fill="#57C9E8" stroke="#000000" d="M735,27c2.1,0.4,1.9,0.2,3,1
	C735.9,27.6,736.1,27.8,735,27z"/>
<path fill-rule="evenodd" clip-rule="evenodd" fill="#57C9E8" stroke="#000000" d="M739,27c2,0,4,0,6,0c0,0.7,0,1.3,0,2
	c-2,0-4,0-6,0C739,28.3,739,27.7,739,27z"/>
<path fill-rule="evenodd" clip-rule="evenodd" fill="#57C9E8" stroke="#000000" d="M589,37c0.3,2.2-1,1.1,1,2
	C589.4,37.2,589.8,38,589,37z"/>
<path fill-rule="evenodd" clip-rule="evenodd" fill="#57C9E8" stroke="#000000" d="M347,54c0.3-2.3,0.5-2.5,1-4
	c-2.5-0.1-3.7-0.1-5-1c0.3,0,0.7,0,1,0c0.7-0.7,1.3-1.3,2-2c7.8,3.3,13.3-0.7,21,2c0,0.7,0,1.3,0,2c-2.3,1.2-2.3,1.6-6,2
	C357.1,55.9,352.5,54.4,347,54z"/>
<path fill-rule="evenodd" clip-rule="evenodd" fill="#FFFFFF" stroke="#000000" d="M447,74c0-1.7,0-3.3,0-5c0.3-0.3,0.7-0.7,1-1
	c3.4,0.2,4.3,0.9,6,0c0.3,0,0.7,0,1,0c-0.3-0.3-0.7-0.7-1-1c-1.6-3.2-0.6,0.1-3-2c1.3-0.7,2.1-1.1,3-2c-2,0-4,0-6,0
	c-0.3-2.3-0.7-4.7-1-7c3.6-1.7,5.9-3.8,10-5c0-0.3,0-0.7,0-1c-2.3-0.3-4.7-0.7-7-1c-3,3.8-9.2,5.6-11,10c-0.8,1-0.4,0.3-1,2
	c2.3,0.3,2.5,0.5,4,1c0,0.7,0,1.3,0,2c-5.4,1.6-3.3,4.6-7,7c-4.6,3.6-9,1.9-13,4c0.7,0,1.3,0,2,0C428.7,77.7,441.1,74.7,447,74z"/>
<path fill-rule="evenodd" clip-rule="evenodd" fill="#57C9E8" stroke="#000000" d="M381,57c3.2,0.8,1.5-0.5,3,2
	C381.6,58.2,382.4,58.6,381,57z"/>
<path fill-rule="evenodd" clip-rule="evenodd" fill="#57C9E8" stroke="#000000" d="M456,62c1.9,1.4,6.1,1.3,8,0
	C461.3,62,458.7,62,456,62z"/>
<path fill-rule="evenodd" clip-rule="evenodd" fill="#57C9E8" stroke="#000000" d="M387,65c2.4,0.3,0.9,0.3,4,0c0,3.2-1.7,1.3,1,3
	c1.9,0.3,1.2-0.7,2,2c-1.3,0.7-2.1,1.1-3,2c6.2,0.8,7.2,4.6,12,7c-0.5,1.3-1.2,3-2,4c-2.6,1.7-10.5,1.8-14,2c0-0.7,0-1.3,0-2
	c1.8-0.6,1-0.2,2-1c-2.5-1.3-0.7,0.4-2-2c2.7-1.6,0.8,0.2,1-3c2.6,0,0.9,1.3,3-1c-5.3-2-6-2.9-7-8C386.7,68,385.5,68.2,387,65z"/>
<path fill-rule="evenodd" clip-rule="evenodd" fill="#57C9E8" stroke="#000000" d="M440,67c2.1,0.4,1.9,0.2,3,1
	c-0.3,0.3-0.7,0.7-1,1c-0.7,0.3-1.3,0.7-2,1C440,69,440,68,440,67z"/>
<path fill-rule="evenodd" clip-rule="evenodd" fill="#57C9E8" stroke="#000000" d="M375,75c4.6-0.6,4.6-1.7,10-2
	c0.3,0.3,0.7,0.7,1,1c-0.3,2-0.7,4-1,6c-0.3,0.3-0.7,0.7-1,1c-3,0.3-6,0.7-9,1c-0.3-0.7-0.7-1.3-1-2C376.7,78.2,375.4,79,375,75z"/>
<path fill-rule="evenodd" clip-rule="evenodd" fill="#FFFFFF" stroke="#000000" d="M486,92c-1.5,1.1-4.9,1.6-7,2c0,0.3,0,0.7,0,1
	c0.7,0.7,1.3,1.3,2,2c-0.7,0-1.3,0-2,0c-1.1,0.8-0.9,0.6-3,1c-1.5-2.6-0.7-3.1-3-4c-1.7,1-1.3-0.9-3,0c-3.5,2.2-6.2,5.1-7,10
	c0.3,0.3,0.7,0.7,1,1c5.9,0.6,9.3-0.5,15-2c4.7,1.8,8.7,3.2,15,2c0-1,0-2,0-3c-3.8-0.9-8.5-3.5-11-6C485.9,94.9,486.9,93.8,486,92z"
	/>
<path fill-rule="evenodd" clip-rule="evenodd" fill="#57C9E8" stroke="#000000" d="M728,101c2.1,0.4,1.9,0.2,3,1
	C728.9,101.6,729.1,101.8,728,101z"/>
<path fill-rule="evenodd" clip-rule="evenodd" fill="#F6EB13" stroke="#000000" d="M418,102c3.2,0.8,1.5-0.5,3,2
	c-0.8,1.5-0.2,3.4,0,7c-1,0-2,0-3,0C417.6,105.4,418.2,107.2,418,102z"/>
<path fill-rule="evenodd" clip-rule="evenodd" fill="#F6EB13" stroke="#000000" d="M405,108c0.4,0.3,2,0.5,1,2
	C404.9,109.5,402.9,108.2,405,108z"/>
<path fill-rule="evenodd" clip-rule="evenodd" fill="#F6EB13" stroke="#000000" d="M473,119c1.3,0,2.7,0,4,0c0,0.3,0,0.7,0,1
	c-0.3,0-0.7,0-1,0C473.6,120.5,474.8,121.6,473,119z"/>
<path fill-rule="evenodd" clip-rule="evenodd" fill="#57C9E8" stroke="#000000" d="M511,228c2.5,1.8,2.6,1.8,3,6
	c1.3,1.7-4.4,24.5-13,25c-1.6-2.9-2.7-4.4-3-9c3.5-3.9,0.1-7.2,3-12C505.5,234.6,509.7,234.9,511,228z"/>
<path fill-rule="evenodd" clip-rule="evenodd" fill="#57C9E8" stroke="#000000" d="M525,248c0.7,0,1.3,0,2,0
	C525.8,249.6,526.6,249.2,525,248z"/>
<path fill-rule="evenodd" clip-rule="evenodd" fill="#57C9E8" stroke="#000000" d="M26,258c5.3,0,10.7,0,16,0c0,5.3,0,10.7,0,16
	c-5.3,0-10.7,0-16,0C26,268.7,26,263.3,26,258z"/>
<path fill-rule="evenodd" clip-rule="evenodd" fill="#EE2D2F" stroke="#000000" d="M729,233c2.1,0.4,1.9,0.2,3,1
	c1.9,2.6,0.9,7.2,3,10c1.3,0.3,2.7,0.7,4,1c3.3,2.5,11.8,11.7,12,18c3.3,5.2-5.9,19.6-8,25c-6.3,0.7-22.5,6.1-24-5c-1,0-2,0-3,0
	c-0.4-2.1-0.2-1.9-1-3c-1.3,2.5,0.4,0.7-2,2c0.3-2.8,1.1-2.1,0-4c-1.6,1.8-0.9,1.4-4,2c-5.6-15.6-34.5,4.1-46,0
	c-0.3-0.7-0.7-1.3-1-2c4.7-4.5-1.8-10.5-3-15c-1-3.9,0.6-7.6,1-12l17-6c1.6-1.2,0.7-4.3,2-6c0.4-0.5,11.3-6.8,13-7
	c1.6,1.8,0.9,1.4,4,2c1.3-4.5,4.2-7.1,9-8c2.3,1.9,7.3,1.3,9,4c-2.2,1.7-3.1,2.8-2,5c2.7,3,7.5,5.1,9,5c3.6-3,3-9.5,4-15
	c0.3,0,0.7,0,1,0c0,0.3,0,0.7,0,1C728.2,227.8,728.6,229.4,729,233z"/>
<path fill-rule="evenodd" clip-rule="evenodd" fill="#EE2D2F" stroke="#000000" d="M26,281c5.3,0,10.7,0,16,0c0,5.3,0,10.7,0,16
	c-5.3,0-10.7,0-16,0C26,291.7,26,286.3,26,281z"/>
<path fill-rule="evenodd" clip-rule="evenodd" fill="#EE2D2F" stroke="#000000" d="M740,294c0,2,0,4,0,6c-0.7,0-1.3,0-2,0
	c-1.2,0.8-1.7,0.8-4,1c-0.9-3.1-2.1-3.7-3-7c1,0,2,0,3,0C735.7,294.8,736.6,294.2,740,294z"/>
<path fill-rule="evenodd" clip-rule="evenodd" fill="#F6EB13" stroke="#000000" d="M690,114c-1.3,0-2.7,0-4,0c0-0.7,0-1.3,0-2
	c0.8-1.1,0.6-0.9,1-3c-3,0.7-6,1.3-9,2c0-0.7,0-1.3,0-2c0.7-0.7,1.3-1.3,2-2c-1.3,0-2.7,0-4,0c-1.7,2.4-2.7,3.1-6,4c0,0.3,0,0.7,0,1
	c4.8,0.7,5.6,1.2,10,2c0,0.7,0,1.3,0,2c-0.3,0-0.7,0-1,0c-1.3,1.1-3.5,2.2-5,3c0,0.7,0,1.3,0,2c3.8,1.5,3.5,4.4,6,7
	c-0.7,2.2-1.5,1-2,2c-0.2,0.4,1.9,4,1,6c-4.5,10-20.8,17-32,15c-1.7,1.7-3.3,3.3-5,5c0.3,0.3,0.7,0.7,1,1c3.3,6.2,7.8,6.1,8,16
	c-4.1,2.7-6.4,6.9-12,8c0.6-4.1-4.5-8-10-11c-0.2,3.8-0.9,5.4-2,8c3.5,0.8,11.2,12.6,12,20c-3.4-0.5-3.1-1.1-6-2c0,0.3,0,0.7,0,1
	c0.7,0,1.3,0,2,0c1.7,2.7,3.1,4.1,4,8c4.6-0.2,2.5-0.3,6,2c-0.9,1.4-1.9,4.5-3,6c-1.2,0.8-1.7,0.8-4,1c-5.3-8.2-18.4-18.7-20-27
	c0.3,0,0.7,0,1,0c3.5,2.7,8.6,7,13,8c0-0.3,0-0.7,0-1c-1.4-1.7-7.3-11.4-8-13c-2.8-6.3,3-15.1-3-19c-1.7,2-2.1,1.9-6,2
	c0.3-3.2,1-3.2,0-5c-1.3-4.4-4.1-5.8-6-10c-2.7,1.1-6.4,1.1-8,2c-3.2,1.6-17.3,13.5-18,17c1.8,3.6-2.5,5.3,0,10c1.4,2.5,3.3,2.5,4,7
	c-1.8,1-1.7,1.3-4,2c0-0.3,0-0.7,0-1c-2.3-3.3,0.6-5.5-2-7c-1.8,1.6-2.5,1.7-6,2c-1.4-3.4-11-29-11-29c-1.2,0.8-1.7,0.8-4,1
	c-2.6-4.3-6.4-7-9-11c-5.4,1.1-16.4,1.8-22-2c0,1.3,0,2.7,0,4c2.9,1.1,4.6,1.2,6,4c0.8,1.1,0.6,0.9,1,3c-2.1,1.7-2.1,4.1-4,6
	c-4.2,4.2-30.2,15.8-33,14c-3.5-3.3-3.3-11-6-15c-1.3-0.7-2.7-1.3-4-2c-0.7-2.7-1.3-5.3-2-8c-3.3-4.1-7.7-6.6-9-13
	c4.3-5.7,0.4-11.1,3-15c3.6-3.3,15.8-3.7,20-3c-0.3-4.5-2.3-3.6,2-5c2.5,1.4,3.5,0.1,6-1c1.1,4.7,5.7,6.7,11,7c1-0.8,0.3-0.4,2-1
	c0-1.3,0-2.7,0-4c-1.5-1.6-1.6-2-2-5c0.7,0,1.3,0,2,0c1,0.3,0.4,0.8,1,0c0.9-1.3-0.3-1.3,1-3c1,1,2,2,3,3c-0.2-4.3-0.7-7.4,2-9
	c4.6-2.9,8.9,2.3,11,3c3,0,6,0,9,0c1.2,0.7,4.9,5.8,6,7c2.7-1.1,4.9-4,7-5c2,0.3,4,0.7,6,1c0-0.7,0-1.3,0-2c3.8-1.2,12.3,2.3,15,1
	c2.1-3-0.8-3.4,2-5c1.9-0.9,0.7-0.5,3,0c0.5-4.4,0.4-4.5,5-5c1.4,0.2,11-6.7,15-8c6.3-2,9.8,1.9,16,2c0.3-0.3,0.7-0.7,1-1
	c-0.4-2.3-0.9-1.1,0-3c1.3-0.9,2.5-0.9,5-1c8.1,7,33.9,5.5,43,5c0.9-2.9,1.8-3.5,4-5c-1.1-1.5-1.1-0.8-2-3c5.9-0.2,7.1-0.2,13,0
	c3.3,6.1,7.9,12,16,13c1.4-1.3,1.8-1.4,4-2c0,1,0,2,0,3c-1.3,1.4-2.1,3.2-3,5c-3.3-0.3-1.7-0.4-5,0c2,6.9-3.1,9.2-7,13
	c2.7,2.4,3.8,3.8,4,9c-0.3,0.3-0.7,0.7-1,1c-3.8,0.5-4.2,1.4-8,2c0-0.7,0-1.3,0-2C689.6,118.2,689.7,117.5,690,114z"/>
<path fill-rule="evenodd" clip-rule="evenodd" fill="#F6EB13" stroke="#000000" d="M559,107c1,0.8,0.3,0.4,2,1
	C560,107.2,560.7,107.6,559,107z"/>
<path fill-rule="evenodd" clip-rule="evenodd" fill="#F6EB13" stroke="#000000" d="M518,144c2,0,4,0,6,0c1.3-2.1,2.1-2.3,3-5
	c-6.4,2-11.2-3.3-14-8c-1,0.3-2,0.7-3,1c0,1,0,2,0,3c0.8,1,0.4,0.3,1,2c4.6,1.6,2.7,2.7,7,3C518,141.3,518,142.7,518,144z"/>
<path fill-rule="evenodd" clip-rule="evenodd" fill="#F6EB13" stroke="#000000" d="M675,149c0-1.3,0-2.7,0-4c1.3-1,2.7-2,4-3
	c0,1.7,0,3.3,0,5c-0.8,1-0.4,0.3-1,2C677,149,676,149,675,149z"/>
<path fill-rule="evenodd" clip-rule="evenodd" fill="#F6EB13" stroke="#000000" d="M654,154c-0.6,3.9-0.7,3.8-4,5c0-0.3,0-0.7,0-1
	c-0.8-1.1-0.6-0.9-1-3C650.6,154.4,651.4,154.2,654,154z"/>
<path fill-rule="evenodd" clip-rule="evenodd" fill="#F6EB13" stroke="#000000" d="M684,168c0,1,0,2,0,3c1,0,2,0,3,0
	c0.4,5.8-2.8,9.5-6,8c-1.2-1.7-1-2.3-2-5c0.7,0,1.3,0,2,0c1.1,1.2,2.5,2.1,4,3c-0.7-2-0.4-3.1-1-4c-1.8-2-3.3-2.8-6-4
	c-0.2,2.3-0.2,2.8-1,4c0-0.3,0-0.7,0-1c-3.3-3.7-2.5-8.6-1-15c0.3,0,0.7,0,1,0c1,0.8,0.3,0.4,2,1c0.6,1.6,0.8,2.4,1,5
	c-1.8,1.9-1.8,0.8-1,3c0.6,1.3,0,0.7,1,1C681.5,167.5,681.7,167.7,684,168z"/>
<path fill-rule="evenodd" clip-rule="evenodd" fill="#F6EB13" stroke="#000000" d="M612,169c1.7,2,2.5,3.1-1,5c0-0.7,0-1.3,0-2
	C611.8,170.9,611.6,171.1,612,169z"/>
<path fill-rule="evenodd" clip-rule="evenodd" fill="#F6EB13" stroke="#000000" d="M687,178c0.7,0,1.3,0,2,0c0.3,2,0.7,4,1,6
	c-3.6,2.1-0.7,2.4-4,4c-0.9-0.9-1.8-1.3-3-2c0-3.2,1.7-1.3-1-3c-1.7,0.3-1.7,1.7-3-1C682.9,181.3,685.1,180.7,687,178z"/>
<path fill-rule="evenodd" clip-rule="evenodd" fill="#F6EB13" stroke="#000000" d="M667,184c2.4,1.3,4.7,2.4,6,5
	c-7.8,6.6,0,3.7-2,10c-1.1,3.7-4.5,4.3-5,11c-0.3-0.3-0.7-0.7-1-1c-2.5,0.6-10.7-0.2-13-2c-2-2.4-3.2-5.5-4-9
	C655.3,194.2,662.6,190.7,667,184z"/>
<path fill-rule="evenodd" clip-rule="evenodd" fill="#F6EB13" stroke="#000000" d="M566,185c1.6,1.4,1.1,0.6,2,3c-0.7,0-1.3,0-2,0
	C566,187,566,186,566,185z"/>
<path fill-rule="evenodd" clip-rule="evenodd" fill="#F6EB13" stroke="#000000" d="M566,194c2.5,1.5,1.1-0.2,2,3c-0.3,0-0.7,0-1,0
	c0-0.3,0-0.7,0-1C566.2,195,566.6,195.7,566,194z"/>
<path fill-rule="evenodd" clip-rule="evenodd" fill="#F6EB13" stroke="#000000" d="M692,195c0.7,0,1.3,0,2,0c0,1.9-0.3,2.9,1,4
	c-1.1,0.8-0.9,0.6-3,1c-0.6-1.8-0.2-1-1-2C691.3,197,691.7,196,692,195z"/>
<path fill-rule="evenodd" clip-rule="evenodd" fill="#F6EB13" stroke="#000000" d="M686,196c0.6,0.7,1.4,0,1,2c-0.3,0-0.7,0-1,0
	c-1.4,1.6-0.6,1.1-3,2c0-0.7,0-1.3,0-2C685.4,197.2,684.6,197.6,686,196z"/>
<path fill-rule="evenodd" clip-rule="evenodd" fill="#F6EB13" stroke="#000000" d="M676,197c3,0.5,4.7,0.7,6,3c-0.3,0-0.7,0-1,0
	c-2.1-1.4-3.8-0.8-6,0C675.3,199,675.7,198,676,197z"/>
<path fill-rule="evenodd" clip-rule="evenodd" fill="#F6EB13" stroke="#000000" d="M682,204c-3.2,0.8-1.5-0.5-3,2
	c2.2,1.9,1.6,1.8,2,6c-1,0-2,0-3,0c-0.3-1.7-0.7-3.3-1-5c-0.3,0-0.7,0-1,0c0,1,0,2,0,3c-2.1-0.4-1.9-0.2-3-1c-0.8-1.2-0.8-1.7-1-4
	c0.8-1,1.4-2.7,2-4c3.2,1.5,5.2,1.8,7,0C681.8,202.1,681.6,201.9,682,204z"/>
<path fill-rule="evenodd" clip-rule="evenodd" fill="#F6EB13" stroke="#000000" d="M702,201c3.2,0.4,3.8,1,6,2c0,2.5-0.5,3.4,3,5
	c1.2-2.4,2.4-3.2,4-5c7.7,3.3,20.4,5.5,24,13c0,0-4,0.4-2,1c0.3,0,0.7,0,1,0c2,2.9,5.3,4,7,7c0.3,0.3,0.7,0.7,1,1c-1,0-2,0-3,0
	c-1.3-0.9-3.1-0.1-5-1c-3.7-1.9-1.5-4.5-8-5c-1.9,2.7-2.4,2.9-7,3c-3-3.6-5.5-0.4-8-4c1.8-1.9,1.8-0.8,1-3c-3.3-6.2-12.1-3.8-17-13
	C701.1,201.6,700.9,201.8,702,201z"/>
<path fill-rule="evenodd" clip-rule="evenodd" fill="#F6EB13" stroke="#000000" d="M647,206c0.4,0.3,2,0.5,1,2
	C646.9,207.5,644.9,206.2,647,206z"/>
<path fill-rule="evenodd" clip-rule="evenodd" fill="#F6EB13" stroke="#000000" d="M689,207c0.7,0,1.3,0,2,0c0,0.7,0,1.3,0,2
	C688.3,208.3,689.2,209.7,689,207z"/>
<path fill-rule="evenodd" clip-rule="evenodd" fill="#F6EB13" stroke="#000000" d="M693,207c2,0,4,0,6,0c0,0.7,0,1.3,0,2
	c-0.3,0-0.7,0-1,0C695,207.3,695.1,209.9,693,207z"/>
<path fill-rule="evenodd" clip-rule="evenodd" fill="#F6EB13" stroke="#000000" d="M747,209c2.7,1.2,1.8-0.9,3,2
	c-3.5,2.9-4.7,3.9-10,3c0-0.7,0-1.3,0-2c2.7,0,4.6,0,6-1C746.8,210,746.4,210.7,747,209z"/>
<path fill-rule="evenodd" clip-rule="evenodd" fill="#F6EB13" stroke="#000000" d="M673,211c2.5,1.3,0.7-0.4,2,2
	c-0.3,0.3-0.7,0.7-1,1c-0.3,0-0.7,0-1,0C673,213,673,212,673,211z"/>
<path fill-rule="evenodd" clip-rule="evenodd" fill="#F6EB13" stroke="#000000" d="M708,212c1.3,2,0.7,2.8,0,5c-0.3,0-0.7,0-1,0
	C707.2,214.4,707.4,213.6,708,212z"/>
<path fill-rule="evenodd" clip-rule="evenodd" fill="#F6EB13" stroke="#000000" d="M755,213c2.6,1.3,2.1,1.1,3,4c-0.3,0-0.7,0-1,0
	c-0.3-0.3-0.7-0.7-1-1C755.7,215,755.3,214,755,213z"/>
<path fill-rule="evenodd" clip-rule="evenodd" fill="#F6EB13" stroke="#000000" d="M642,214c6.4-0.1,18.8,1.8,21,6
	c-0.3,0.3-0.7,0.7-1,1C655.2,219.2,641,219.8,642,214z"/>
<path fill-rule="evenodd" clip-rule="evenodd" fill="#F6EB13" stroke="#000000" d="M759,218c0.7,0,1.3,0,2,0c0,0.7,0,1.3,0,2
	c-0.7,0-1.3,0-2,0C759,219.3,759,218.7,759,218z"/>
<path fill-rule="evenodd" clip-rule="evenodd" fill="#F6EB13" stroke="#000000" d="M675,219c0.7,0,1.3,0,2,0c0,0.7,0,1.3,0,2
	C674.3,220.3,675.2,221.7,675,219z"/>
<path fill-rule="evenodd" clip-rule="evenodd" fill="#F6EB13" stroke="#000000" d="M685,219c2,0,4,0,6,0c0,0.7,0,1.3,0,2
	c-0.7,0-1.3,0-2,0c-2.3,1.3-4.7,2.7-7,4c0-0.7,0-1.3,0-2C684,221.6,684.1,221.7,685,219z"/>
<path fill-rule="evenodd" clip-rule="evenodd" fill="#F6EB13" stroke="#000000" d="M673,222c3.2,0.8,1.5-0.5,3,2
	C673.6,223.2,674.4,223.6,673,222z"/>
<path fill-rule="evenodd" clip-rule="evenodd" fill="#F6EB13" stroke="#000000" d="M766,222c3.2,0.8,1.5-0.5,3,2c-0.3,0-0.7,0-1,0
	C767.3,223.3,766.7,222.7,766,222z"/>
<path fill-rule="evenodd" clip-rule="evenodd" fill="#F6EB13" stroke="#000000" d="M26,305c5.3,0,10.7,0,16,0c0,5.3,0,10.7,0,16
	c-5.3,0-10.7,0-16,0C26,315.7,26,310.3,26,305z"/>
<text transform="matrix(1 0 0 1 48.5 246.5)" font-family="'MyriadPro-Regular'" font-size="12">USD</text>
<text transform="matrix(1 0 0 1 48.5 271.5)" font-family="'MyriadPro-Regular'" font-size="12">EUR</text>
<text transform="matrix(1 0 0 1 48.5 293)"><tspan x="0" y="0" font-family="'MyriadPro-Regular'" font-size="12">A</tspan><tspan x="7" y="0" font-family="'MyriadPro-Regular'" font-size="12">UD</tspan></text>
<text transform="matrix(1 0 0 1 48.5 318)"><tspan x="0" y="0" font-family="'MyriadPro-Regular'" font-size="12">O</tspan><tspan x="8.5" y="0" font-family="'MyriadPro-Regular'" font-size="12">ther</tspan></text>
</svg>
